<svg xmlns="http://www.w3.org/2000/svg" xmlns:xlink="http://www.w3.org/1999/xlink" width="500" zoomAndPan="magnify" viewBox="0 0 375 374.999991" height="500" preserveAspectRatio="xMidYMid meet" version="1.0"><defs><g/><clipPath id="176c8697d5"><path d="M 267 165 L 289 165 L 289 187 L 267 187 Z M 267 165 " clip-rule="nonzero"/></clipPath><clipPath id="32f9821e17"><path d="M 263.527344 168.453125 L 278.398438 154.707031 L 298.761719 176.738281 L 283.890625 190.484375 Z M 263.527344 168.453125 " clip-rule="nonzero"/></clipPath><clipPath id="72f52afa55"><path d="M 263.527344 168.453125 L 278.398438 154.707031 L 298.761719 176.738281 L 283.890625 190.484375 Z M 263.527344 168.453125 " clip-rule="nonzero"/></clipPath><clipPath id="3e69836c26"><path d="M 278 155 L 300 155 L 300 177 L 278 177 Z M 278 155 " clip-rule="nonzero"/></clipPath><clipPath id="d193c12378"><path d="M 274.199219 158.589844 L 289.070312 144.84375 L 309.429688 166.875 L 294.558594 180.621094 Z M 274.199219 158.589844 " clip-rule="nonzero"/></clipPath><clipPath id="83085ad3c5"><path d="M 274.199219 158.589844 L 289.070312 144.84375 L 309.429688 166.875 L 294.558594 180.621094 Z M 274.199219 158.589844 " clip-rule="nonzero"/></clipPath></defs><g clip-path="url(#176c8697d5)"><g clip-path="url(#32f9821e17)"><g clip-path="url(#72f52afa55)"><path fill="#18cb96" d="M 288.734375 165.996094 L 270.710938 165.191406 C 267.226562 165.039062 266.640625 171.820312 270.765625 171.933594 L 281.980469 172.234375 L 281.125 183.519531 C 280.863281 186.957031 287.566406 187.320312 287.757812 183.828125 Z M 288.734375 165.996094 " fill-opacity="1" fill-rule="nonzero"/></g></g></g><g clip-path="url(#3e69836c26)"><g clip-path="url(#d193c12378)"><g clip-path="url(#83085ad3c5)"><path fill="#18cb96" d="M 299.40625 156.132812 L 281.378906 155.332031 C 277.898438 155.175781 277.3125 161.957031 281.4375 162.070312 L 292.652344 162.375 L 291.792969 173.660156 C 291.535156 177.09375 298.234375 177.457031 298.425781 173.964844 Z M 299.40625 156.132812 " fill-opacity="1" fill-rule="nonzero"/></g></g></g><g fill="#373643" fill-opacity="1"><g transform="translate(97.202021, 204.537306)"><g><path d="M 9.328125 -26.125 L 9.328125 4.375 C 9.328125 5.789062 9.75 6.738281 10.59375 7.21875 C 11.445312 7.695312 12.617188 7.9375 14.109375 7.9375 L 14.109375 8.984375 C 13.378906 8.953125 12.367188 8.910156 11.078125 8.859375 C 9.785156 8.816406 8.410156 8.796875 6.953125 8.796875 C 5.921875 8.796875 4.898438 8.816406 3.890625 8.859375 C 2.890625 8.910156 2.125 8.953125 1.59375 8.984375 L 1.59375 7.9375 C 2.78125 7.9375 3.617188 7.722656 4.109375 7.296875 C 4.609375 6.867188 4.859375 6.054688 4.859375 4.859375 L 4.859375 -20.15625 C 4.859375 -21.644531 4.59375 -22.742188 4.0625 -23.453125 C 3.539062 -24.171875 2.550781 -24.53125 1.09375 -24.53125 L 1.09375 -25.578125 C 2.15625 -25.472656 3.179688 -25.421875 4.171875 -25.421875 C 5.128906 -25.421875 6.046875 -25.476562 6.921875 -25.59375 C 7.804688 -25.707031 8.609375 -25.882812 9.328125 -26.125 Z M 17.28125 -26.265625 C 19.03125 -26.265625 20.597656 -25.789062 21.984375 -24.84375 C 23.378906 -23.90625 24.484375 -22.523438 25.296875 -20.703125 C 26.109375 -18.878906 26.515625 -16.628906 26.515625 -13.953125 C 26.515625 -12.160156 26.296875 -10.394531 25.859375 -8.65625 C 25.429688 -6.925781 24.765625 -5.359375 23.859375 -3.953125 C 22.953125 -2.546875 21.773438 -1.421875 20.328125 -0.578125 C 18.890625 0.265625 17.160156 0.6875 15.140625 0.6875 C 13.585938 0.6875 12.238281 0.328125 11.09375 -0.390625 C 9.957031 -1.117188 9.191406 -2 8.796875 -3.03125 L 9.28125 -3.71875 C 9.75 -2.789062 10.421875 -2.015625 11.296875 -1.390625 C 12.171875 -0.765625 13.269531 -0.453125 14.59375 -0.453125 C 16.445312 -0.453125 17.882812 -1.03125 18.90625 -2.1875 C 19.9375 -3.34375 20.660156 -4.890625 21.078125 -6.828125 C 21.492188 -8.765625 21.703125 -10.910156 21.703125 -13.265625 C 21.703125 -15.910156 21.484375 -18.078125 21.046875 -19.765625 C 20.617188 -21.453125 19.972656 -22.707031 19.109375 -23.53125 C 18.253906 -24.363281 17.195312 -24.78125 15.9375 -24.78125 C 14.3125 -24.78125 12.835938 -24.109375 11.515625 -22.765625 C 10.191406 -21.421875 9.347656 -19.394531 8.984375 -16.6875 L 8.390625 -17.375 C 8.753906 -20.1875 9.753906 -22.367188 11.390625 -23.921875 C 13.035156 -25.484375 15 -26.265625 17.28125 -26.265625 Z M 17.28125 -26.265625 "/></g></g></g><g fill="#373643" fill-opacity="1"><g transform="translate(124.162811, 204.537306)"><g><path d="M 9.328125 -38.9375 L 9.328125 -4.625 C 9.328125 -3.226562 9.617188 -2.28125 10.203125 -1.78125 C 10.785156 -1.289062 11.753906 -1.046875 13.109375 -1.046875 L 13.109375 0 C 12.546875 -0.03125 11.691406 -0.0703125 10.546875 -0.125 C 9.410156 -0.175781 8.257812 -0.203125 7.09375 -0.203125 C 5.96875 -0.203125 4.828125 -0.175781 3.671875 -0.125 C 2.515625 -0.0703125 1.65625 -0.03125 1.09375 0 L 1.09375 -1.046875 C 2.445312 -1.046875 3.410156 -1.289062 3.984375 -1.78125 C 4.566406 -2.28125 4.859375 -3.226562 4.859375 -4.625 L 4.859375 -32.96875 C 4.859375 -34.457031 4.59375 -35.554688 4.0625 -36.265625 C 3.539062 -36.984375 2.550781 -37.34375 1.09375 -37.34375 L 1.09375 -38.390625 C 2.15625 -38.285156 3.179688 -38.234375 4.171875 -38.234375 C 5.128906 -38.234375 6.046875 -38.289062 6.921875 -38.40625 C 7.804688 -38.519531 8.609375 -38.695312 9.328125 -38.9375 Z M 9.328125 -38.9375 "/></g></g></g><g fill="#373643" fill-opacity="1"><g transform="translate(136.476172, 204.537306)"><g><path d="M 8.484375 0.34375 C 7.128906 0.34375 5.953125 0.0859375 4.953125 -0.421875 C 3.960938 -0.929688 3.210938 -1.648438 2.703125 -2.578125 C 2.191406 -3.503906 1.9375 -4.582031 1.9375 -5.8125 C 1.9375 -7.269531 2.273438 -8.460938 2.953125 -9.390625 C 3.628906 -10.316406 4.5 -11.0625 5.5625 -11.625 C 6.625 -12.1875 7.738281 -12.65625 8.90625 -13.03125 C 10.082031 -13.414062 11.203125 -13.78125 12.265625 -14.125 C 13.328125 -14.476562 14.195312 -14.882812 14.875 -15.34375 C 15.550781 -15.800781 15.890625 -16.414062 15.890625 -17.1875 L 15.890625 -20.265625 C 15.890625 -21.648438 15.679688 -22.707031 15.265625 -23.4375 C 14.859375 -24.164062 14.304688 -24.65625 13.609375 -24.90625 C 12.910156 -25.15625 12.128906 -25.28125 11.265625 -25.28125 C 10.441406 -25.28125 9.554688 -25.160156 8.609375 -24.921875 C 7.671875 -24.691406 6.921875 -24.210938 6.359375 -23.484375 C 6.984375 -23.347656 7.523438 -23.015625 7.984375 -22.484375 C 8.453125 -21.960938 8.6875 -21.285156 8.6875 -20.453125 C 8.6875 -19.628906 8.421875 -18.976562 7.890625 -18.5 C 7.359375 -18.019531 6.679688 -17.78125 5.859375 -17.78125 C 4.898438 -17.78125 4.195312 -18.082031 3.75 -18.6875 C 3.300781 -19.300781 3.078125 -19.988281 3.078125 -20.75 C 3.078125 -21.613281 3.289062 -22.3125 3.71875 -22.84375 C 4.15625 -23.375 4.703125 -23.867188 5.359375 -24.328125 C 6.117188 -24.859375 7.101562 -25.3125 8.3125 -25.6875 C 9.519531 -26.070312 10.882812 -26.265625 12.40625 -26.265625 C 13.769531 -26.265625 14.929688 -26.109375 15.890625 -25.796875 C 16.847656 -25.484375 17.644531 -25.03125 18.28125 -24.4375 C 19.132812 -23.632812 19.691406 -22.660156 19.953125 -21.515625 C 20.222656 -20.378906 20.359375 -19.015625 20.359375 -17.421875 L 20.359375 -3.625 C 20.359375 -2.800781 20.484375 -2.207031 20.734375 -1.84375 C 20.984375 -1.476562 21.367188 -1.296875 21.890625 -1.296875 C 22.253906 -1.296875 22.601562 -1.375 22.9375 -1.53125 C 23.269531 -1.695312 23.671875 -1.960938 24.140625 -2.328125 L 24.671875 -1.484375 C 23.984375 -0.953125 23.320312 -0.515625 22.6875 -0.171875 C 22.0625 0.171875 21.21875 0.34375 20.15625 0.34375 C 19.195312 0.34375 18.398438 0.179688 17.765625 -0.140625 C 17.140625 -0.472656 16.671875 -0.960938 16.359375 -1.609375 C 16.046875 -2.253906 15.890625 -3.078125 15.890625 -4.078125 C 14.992188 -2.585938 13.925781 -1.476562 12.6875 -0.75 C 11.445312 -0.0195312 10.046875 0.34375 8.484375 0.34375 Z M 10.28125 -1.640625 C 11.375 -1.640625 12.390625 -1.953125 13.328125 -2.578125 C 14.273438 -3.210938 15.128906 -4.15625 15.890625 -5.40625 L 15.890625 -15.140625 C 15.492188 -14.578125 14.914062 -14.101562 14.15625 -13.71875 C 13.394531 -13.34375 12.566406 -12.960938 11.671875 -12.578125 C 10.773438 -12.203125 9.921875 -11.757812 9.109375 -11.25 C 8.296875 -10.738281 7.625 -10.066406 7.09375 -9.234375 C 6.570312 -8.410156 6.3125 -7.335938 6.3125 -6.015625 C 6.3125 -4.679688 6.664062 -3.617188 7.375 -2.828125 C 8.082031 -2.035156 9.050781 -1.640625 10.28125 -1.640625 Z M 10.28125 -1.640625 "/></g></g></g><g fill="#373643" fill-opacity="1"><g transform="translate(159.31582, 204.537306)"><g><path d="M 24.53125 -25.578125 L 24.53125 -24.578125 C 23.90625 -24.515625 23.328125 -24.234375 22.796875 -23.734375 C 22.265625 -23.234375 21.765625 -22.359375 21.296875 -21.109375 L 13.15625 0.25 L 12.3125 0.25 L 3.171875 -21.75 C 2.546875 -23.039062 1.925781 -23.828125 1.3125 -24.109375 C 0.695312 -24.390625 0.191406 -24.53125 -0.203125 -24.53125 L -0.203125 -25.578125 C 0.523438 -25.472656 1.285156 -25.394531 2.078125 -25.34375 C 2.878906 -25.300781 3.742188 -25.28125 4.671875 -25.28125 C 5.691406 -25.28125 6.773438 -25.3125 7.921875 -25.375 C 9.066406 -25.4375 10.132812 -25.503906 11.125 -25.578125 L 11.125 -24.53125 C 10.289062 -24.53125 9.550781 -24.472656 8.90625 -24.359375 C 8.257812 -24.242188 7.851562 -23.894531 7.6875 -23.3125 C 7.53125 -22.726562 7.734375 -21.742188 8.296875 -20.359375 L 14.40625 -5.21875 L 14.109375 -5.109375 L 19.765625 -19.90625 C 20.191406 -21 20.363281 -21.867188 20.28125 -22.515625 C 20.195312 -23.160156 19.859375 -23.648438 19.265625 -23.984375 C 18.671875 -24.316406 17.773438 -24.515625 16.578125 -24.578125 L 16.578125 -25.578125 C 17.179688 -25.535156 17.695312 -25.503906 18.125 -25.484375 C 18.550781 -25.472656 18.972656 -25.457031 19.390625 -25.4375 C 19.804688 -25.425781 20.257812 -25.421875 20.75 -25.421875 C 21.507812 -25.421875 22.195312 -25.4375 22.8125 -25.46875 C 23.425781 -25.5 24 -25.535156 24.53125 -25.578125 Z M 13.15625 0.25 L 11.46875 4.5625 C 11.132812 5.394531 10.796875 6.09375 10.453125 6.65625 C 10.109375 7.21875 9.734375 7.679688 9.328125 8.046875 C 8.804688 8.546875 8.179688 8.882812 7.453125 9.0625 C 6.722656 9.238281 6.0625 9.328125 5.46875 9.328125 C 4.832031 9.328125 4.257812 9.210938 3.75 8.984375 C 3.238281 8.753906 2.832031 8.414062 2.53125 7.96875 C 2.226562 7.519531 2.078125 6.984375 2.078125 6.359375 C 2.078125 5.566406 2.304688 4.925781 2.765625 4.4375 C 3.234375 3.957031 3.882812 3.71875 4.71875 3.71875 C 5.414062 3.71875 6.007812 3.914062 6.5 4.3125 C 7 4.71875 7.25 5.300781 7.25 6.0625 C 7.25 6.625 7.113281 7.085938 6.84375 7.453125 C 6.582031 7.816406 6.269531 8.097656 5.90625 8.296875 C 5.976562 8.328125 6.035156 8.34375 6.078125 8.34375 C 6.128906 8.34375 6.171875 8.34375 6.203125 8.34375 C 7.097656 8.34375 7.894531 8.035156 8.59375 7.421875 C 9.289062 6.804688 9.898438 5.820312 10.421875 4.46875 L 12.21875 -0.15625 Z M 13.15625 0.25 "/></g></g></g><g fill="#373643" fill-opacity="1"><g transform="translate(182.453392, 204.537306)"><g><path d="M 10.328125 -26.265625 C 11.648438 -26.265625 12.773438 -26.050781 13.703125 -25.625 C 14.628906 -25.195312 15.304688 -24.800781 15.734375 -24.4375 C 16.828125 -23.539062 17.492188 -24.132812 17.734375 -26.21875 L 18.875 -26.21875 C 18.800781 -25.289062 18.75 -24.1875 18.71875 -22.90625 C 18.6875 -21.632812 18.671875 -19.925781 18.671875 -17.78125 L 17.53125 -17.78125 C 17.332031 -19 16.992188 -20.1875 16.515625 -21.34375 C 16.035156 -22.507812 15.332031 -23.460938 14.40625 -24.203125 C 13.476562 -24.953125 12.269531 -25.328125 10.78125 -25.328125 C 9.613281 -25.328125 8.640625 -25.003906 7.859375 -24.359375 C 7.085938 -23.710938 6.703125 -22.757812 6.703125 -21.5 C 6.703125 -20.507812 7 -19.65625 7.59375 -18.9375 C 8.1875 -18.226562 8.960938 -17.566406 9.921875 -16.953125 C 10.890625 -16.335938 11.9375 -15.671875 13.0625 -14.953125 C 14.320312 -14.148438 15.460938 -13.332031 16.484375 -12.5 C 17.515625 -11.675781 18.332031 -10.769531 18.9375 -9.78125 C 19.550781 -8.789062 19.859375 -7.613281 19.859375 -6.25 C 19.859375 -4.726562 19.460938 -3.453125 18.671875 -2.421875 C 17.878906 -1.398438 16.84375 -0.625 15.5625 -0.09375 C 14.289062 0.425781 12.894531 0.6875 11.375 0.6875 C 10.644531 0.6875 9.957031 0.628906 9.3125 0.515625 C 8.664062 0.398438 8.046875 0.226562 7.453125 0 C 7.117188 -0.164062 6.773438 -0.363281 6.421875 -0.59375 C 6.078125 -0.820312 5.738281 -1.070312 5.40625 -1.34375 C 5.082031 -1.601562 4.785156 -1.59375 4.515625 -1.3125 C 4.253906 -1.03125 4.054688 -0.476562 3.921875 0.34375 L 2.78125 0.34375 C 2.84375 -0.707031 2.890625 -1.992188 2.921875 -3.515625 C 2.960938 -5.046875 2.984375 -7.066406 2.984375 -9.578125 L 4.125 -9.578125 C 4.351562 -7.722656 4.679688 -6.097656 5.109375 -4.703125 C 5.546875 -3.316406 6.226562 -2.234375 7.15625 -1.453125 C 8.082031 -0.679688 9.375 -0.296875 11.03125 -0.296875 C 11.6875 -0.296875 12.351562 -0.441406 13.03125 -0.734375 C 13.707031 -1.035156 14.273438 -1.535156 14.734375 -2.234375 C 15.203125 -2.929688 15.4375 -3.859375 15.4375 -5.015625 C 15.4375 -6.472656 14.90625 -7.664062 13.84375 -8.59375 C 12.789062 -9.519531 11.453125 -10.492188 9.828125 -11.515625 C 8.640625 -12.273438 7.523438 -13.035156 6.484375 -13.796875 C 5.441406 -14.566406 4.597656 -15.429688 3.953125 -16.390625 C 3.304688 -17.347656 2.984375 -18.503906 2.984375 -19.859375 C 2.984375 -21.347656 3.320312 -22.5625 4 -23.5 C 4.675781 -24.445312 5.578125 -25.144531 6.703125 -25.59375 C 7.828125 -26.039062 9.035156 -26.265625 10.328125 -26.265625 Z M 10.328125 -26.265625 "/></g></g></g><g fill="#373643" fill-opacity="1"><g transform="translate(202.760772, 204.537306)"><g><path d="M 24.53125 -25.578125 L 24.53125 -24.578125 C 23.90625 -24.515625 23.328125 -24.234375 22.796875 -23.734375 C 22.265625 -23.234375 21.765625 -22.359375 21.296875 -21.109375 L 13.15625 0.25 L 12.3125 0.25 L 3.171875 -21.75 C 2.546875 -23.039062 1.925781 -23.828125 1.3125 -24.109375 C 0.695312 -24.390625 0.191406 -24.53125 -0.203125 -24.53125 L -0.203125 -25.578125 C 0.523438 -25.472656 1.285156 -25.394531 2.078125 -25.34375 C 2.878906 -25.300781 3.742188 -25.28125 4.671875 -25.28125 C 5.691406 -25.28125 6.773438 -25.3125 7.921875 -25.375 C 9.066406 -25.4375 10.132812 -25.503906 11.125 -25.578125 L 11.125 -24.53125 C 10.289062 -24.53125 9.550781 -24.472656 8.90625 -24.359375 C 8.257812 -24.242188 7.851562 -23.894531 7.6875 -23.3125 C 7.53125 -22.726562 7.734375 -21.742188 8.296875 -20.359375 L 14.40625 -5.21875 L 14.109375 -5.109375 L 19.765625 -19.90625 C 20.191406 -21 20.363281 -21.867188 20.28125 -22.515625 C 20.195312 -23.160156 19.859375 -23.648438 19.265625 -23.984375 C 18.671875 -24.316406 17.773438 -24.515625 16.578125 -24.578125 L 16.578125 -25.578125 C 17.179688 -25.535156 17.695312 -25.503906 18.125 -25.484375 C 18.550781 -25.472656 18.972656 -25.457031 19.390625 -25.4375 C 19.804688 -25.425781 20.257812 -25.421875 20.75 -25.421875 C 21.507812 -25.421875 22.195312 -25.4375 22.8125 -25.46875 C 23.425781 -25.5 24 -25.535156 24.53125 -25.578125 Z M 13.15625 0.25 L 11.46875 4.5625 C 11.132812 5.394531 10.796875 6.09375 10.453125 6.65625 C 10.109375 7.21875 9.734375 7.679688 9.328125 8.046875 C 8.804688 8.546875 8.179688 8.882812 7.453125 9.0625 C 6.722656 9.238281 6.0625 9.328125 5.46875 9.328125 C 4.832031 9.328125 4.257812 9.210938 3.75 8.984375 C 3.238281 8.753906 2.832031 8.414062 2.53125 7.96875 C 2.226562 7.519531 2.078125 6.984375 2.078125 6.359375 C 2.078125 5.566406 2.304688 4.925781 2.765625 4.4375 C 3.234375 3.957031 3.882812 3.71875 4.71875 3.71875 C 5.414062 3.71875 6.007812 3.914062 6.5 4.3125 C 7 4.71875 7.25 5.300781 7.25 6.0625 C 7.25 6.625 7.113281 7.085938 6.84375 7.453125 C 6.582031 7.816406 6.269531 8.097656 5.90625 8.296875 C 5.976562 8.328125 6.035156 8.34375 6.078125 8.34375 C 6.128906 8.34375 6.171875 8.34375 6.203125 8.34375 C 7.097656 8.34375 7.894531 8.035156 8.59375 7.421875 C 9.289062 6.804688 9.898438 5.820312 10.421875 4.46875 L 12.21875 -0.15625 Z M 13.15625 0.25 "/></g></g></g><g fill="#373643" fill-opacity="1"><g transform="translate(225.898344, 204.537306)"><g><path d="M 18.125 -26.265625 C 19.382812 -26.265625 20.4375 -26.097656 21.28125 -25.765625 C 22.125 -25.441406 22.828125 -24.976562 23.390625 -24.375 C 24.015625 -23.71875 24.457031 -22.890625 24.71875 -21.890625 C 24.988281 -20.898438 25.125 -19.5625 25.125 -17.875 L 25.125 -4.625 C 25.125 -3.226562 25.410156 -2.28125 25.984375 -1.78125 C 26.566406 -1.289062 27.539062 -1.046875 28.90625 -1.046875 L 28.90625 0 C 28.34375 -0.03125 27.476562 -0.0703125 26.3125 -0.125 C 25.15625 -0.175781 24.03125 -0.203125 22.9375 -0.203125 C 21.84375 -0.203125 20.773438 -0.175781 19.734375 -0.125 C 18.691406 -0.0703125 17.90625 -0.03125 17.375 0 L 17.375 -1.046875 C 18.570312 -1.046875 19.414062 -1.289062 19.90625 -1.78125 C 20.40625 -2.28125 20.65625 -3.226562 20.65625 -4.625 L 20.65625 -18.96875 C 20.65625 -20 20.570312 -20.941406 20.40625 -21.796875 C 20.238281 -22.660156 19.863281 -23.351562 19.28125 -23.875 C 18.707031 -24.40625 17.828125 -24.671875 16.640625 -24.671875 C 15.242188 -24.671875 14.023438 -24.273438 12.984375 -23.484375 C 11.941406 -22.691406 11.128906 -21.609375 10.546875 -20.234375 C 9.972656 -18.859375 9.6875 -17.328125 9.6875 -15.640625 L 9.6875 -4.625 C 9.6875 -3.226562 9.929688 -2.28125 10.421875 -1.78125 C 10.921875 -1.289062 11.765625 -1.046875 12.953125 -1.046875 L 12.953125 0 C 12.429688 -0.03125 11.644531 -0.0703125 10.59375 -0.125 C 9.550781 -0.175781 8.488281 -0.203125 7.40625 -0.203125 C 6.3125 -0.203125 5.179688 -0.175781 4.015625 -0.125 C 2.859375 -0.0703125 2 -0.03125 1.4375 0 L 1.4375 -1.046875 C 2.789062 -1.046875 3.757812 -1.289062 4.34375 -1.78125 C 4.925781 -2.28125 5.21875 -3.226562 5.21875 -4.625 L 5.21875 -20.15625 C 5.21875 -21.644531 4.953125 -22.742188 4.421875 -23.453125 C 3.890625 -24.171875 2.894531 -24.53125 1.4375 -24.53125 L 1.4375 -25.578125 C 2.5 -25.472656 3.523438 -25.421875 4.515625 -25.421875 C 5.472656 -25.421875 6.390625 -25.476562 7.265625 -25.59375 C 8.148438 -25.707031 8.957031 -25.882812 9.6875 -26.125 L 9.6875 -20.265625 C 10.539062 -22.515625 11.738281 -24.078125 13.28125 -24.953125 C 14.820312 -25.828125 16.4375 -26.265625 18.125 -26.265625 Z M 18.125 -26.265625 "/></g></g></g><g fill="#373643" fill-opacity="1"><g transform="translate(253.653572, 204.537306)"><g><path d="M 13.859375 -26.265625 C 14.910156 -26.265625 15.929688 -26.128906 16.921875 -25.859375 C 17.921875 -25.597656 18.816406 -25.203125 19.609375 -24.671875 C 20.367188 -24.179688 20.945312 -23.613281 21.34375 -22.96875 C 21.75 -22.320312 21.953125 -21.617188 21.953125 -20.859375 C 21.953125 -19.960938 21.703125 -19.273438 21.203125 -18.796875 C 20.703125 -18.316406 20.070312 -18.078125 19.3125 -18.078125 C 18.582031 -18.078125 17.941406 -18.289062 17.390625 -18.71875 C 16.847656 -19.144531 16.578125 -19.757812 16.578125 -20.5625 C 16.578125 -21.320312 16.785156 -21.929688 17.203125 -22.390625 C 17.617188 -22.859375 18.109375 -23.15625 18.671875 -23.28125 C 18.335938 -23.882812 17.75 -24.382812 16.90625 -24.78125 C 16.0625 -25.175781 15.160156 -25.375 14.203125 -25.375 C 13.367188 -25.375 12.539062 -25.175781 11.71875 -24.78125 C 10.894531 -24.382812 10.132812 -23.726562 9.4375 -22.8125 C 8.738281 -21.90625 8.171875 -20.664062 7.734375 -19.09375 C 7.304688 -17.519531 7.09375 -15.554688 7.09375 -13.203125 C 7.09375 -10.296875 7.425781 -7.976562 8.09375 -6.25 C 8.757812 -4.53125 9.628906 -3.296875 10.703125 -2.546875 C 11.773438 -1.804688 12.957031 -1.4375 14.25 -1.4375 C 15.113281 -1.4375 15.988281 -1.601562 16.875 -1.9375 C 17.769531 -2.269531 18.613281 -2.804688 19.40625 -3.546875 C 20.207031 -4.296875 20.890625 -5.296875 21.453125 -6.546875 L 22.390625 -6.203125 C 22.054688 -5.148438 21.507812 -4.082031 20.75 -3 C 19.988281 -1.925781 18.992188 -1.039062 17.765625 -0.34375 C 16.546875 0.34375 15.046875 0.6875 13.265625 0.6875 C 11.203125 0.6875 9.34375 0.160156 7.6875 -0.890625 C 6.039062 -1.953125 4.726562 -3.46875 3.75 -5.4375 C 2.769531 -7.40625 2.28125 -9.75 2.28125 -12.46875 C 2.28125 -15.175781 2.769531 -17.566406 3.75 -19.640625 C 4.726562 -21.710938 6.09375 -23.332031 7.84375 -24.5 C 9.601562 -25.675781 11.609375 -26.265625 13.859375 -26.265625 Z M 13.859375 -26.265625 "/></g></g></g></svg>